<?xml version="1.0" encoding="utf-8"?>
<!-- Svg Vector Icons : http://www.onlinewebfonts.com/icon -->
<!DOCTYPE svg PUBLIC "-//W3C//DTD SVG 1.1//EN" "http://www.w3.org/Graphics/SVG/1.1/DTD/svg11.dtd">
<svg version="1.1" xmlns="http://www.w3.org/2000/svg" xmlns:xlink="http://www.w3.org/1999/xlink" x="0px" y="0px" viewBox="0 0 1000 1000" enable-background="new 0 0 1000 1000" xml:space="preserve">
<metadata> Svg Vector Icons : http://www.onlinewebfonts.com/icon </metadata>
<g><g transform="translate(0.000000,511.000000) scale(0.100000,-0.100000)"><path d="M4851.7,4999.1c-471.7-43.7-971-319.8-1380.5-761.6c-492.4-531.5-660.4-1226.4-457.9-1886.7c9.2-32.2-2.3-41.4-55.2-41.4c-41.4,0-87.4-23-122-59.8c-50.6-55.2-55.2-75.9-52.9-280.7c2.3-170.3,16.1-271.5,64.4-430.3c105.8-352,243.9-609.7,329-609.7c16.1,0,34.5-27.6,41.4-62.1c172.6-853.6,566-1369,1208-1580.7c391.2-128.9,729.4-126.5,1104.4,6.9c257.7,89.7,418.8,195.6,609.7,398.1c239.3,255.4,444.1,678.7,506.2,1046.9c13.8,89.7,20.7,96.6,71.3,85.1c87.5-23,158.8,43.7,248.5,225.5c138.1,283,204.8,547.6,207.1,819.1c2.3,232.4,0,239.3-62.1,294.5l-64.4,55.2l39.1,197.9c48.3,264.6,71.3,683.4,50.6,941.1c-36.8,469.4-250.8,821.4-547.6,911.2c-52.9,16.1-103.5,55.2-138.1,105.8c-103.5,149.6-326.7,329-556.8,444.1C5569.5,4980.7,5245.1,5035.9,4851.7,4999.1z"/><path d="M3321.6-695.6c-232.4-147.3-809.9-434.9-1072.2-533.8c-103.5-39.2-324.4-112.8-492.4-163.4c-448.7-135.7-607.4-257.7-757-579.8c-117.3-248.5-145-434.9-142.7-952.6c2.3-460.2,9.2-561.4,50.6-784.6l23-117.3l246.2-128.8c761.6-395.8,1721.1-671.9,2788.7-803c326.7-41.4,1744.1-41.4,2070.8,0c925,115,1808.5,349.7,2510.3,669.5c377.4,172.6,501.6,246.2,526.9,312.9c43.7,112.8,69,448.7,69,885.8c0,370.5-6.9,480.9-46,637.4c-59.8,246.2-161.1,446.3-294.5,579.8c-131.2,131.2-241.6,186.4-556.8,278.4c-526.9,156.5-1053.8,388.9-1520.9,671.9l-246.2,147.2l-384.2-1217.1c-474-1502.5-506.2-1596.8-522.3-1555.4c-6.9,18.4-87.4,241.6-177.2,497L5229-2384.4l66.7,96.7c110.5,163.3,227.8,411.8,255.4,552.2c64.4,310.6-112.8,499.3-492.4,520c-276.1,13.8-455.6-50.6-572.9-209.4c-105.8-142.7-41.4-444.1,163.4-768.5l121.9-195.6l-163.4-464.8c-89.7-253.1-172.6-476.3-181.8-494.7c-11.5-23-25.3-9.2-41.4,46c-13.8,43.7-214,674.2-444.1,1401.2c-227.8,727.1-418.8,1325.3-421.1,1325.3C3519.5-573.6,3429.7-628.8,3321.6-695.6z"/></g></g>
</svg>